<?xml version="1.0" encoding="UTF-8" standalone="no"?>
<!DOCTYPE svg PUBLIC "-//W3C//DTD SVG 1.1//EN" "http://www.w3.org/Graphics/SVG/1.1/DTD/svg11.dtd">
<svg width="100%" height="100%" viewBox="0 0 100 100" version="1.1" xmlns="http://www.w3.org/2000/svg" xmlns:xlink="http://www.w3.org/1999/xlink" xml:space="preserve" xmlns:serif="http://www.serif.com/" style="fill-rule:evenodd;clip-rule:evenodd;stroke-linejoin:round;stroke-miterlimit:2;">
    <g transform="matrix(0.282673,0,0,0.282673,-509.783,-296.175)">
        <path d="M1963.32,1361.8L1951.15,1360.13L1937.11,1357.17L1923.76,1352.94L1911.47,1347.45L1888.65,1334.36L1869,1316.61L1859.18,1304.36L1852.51,1292.95L1850.05,1280.27L1842.33,1267.6L1838.47,1241.83L1838.47,1226.19L1839.18,1212.67L1842.68,1198.31L1843.39,1182.68L1847.95,1170L1856.37,1159.02L1861.28,1146.34L1869.7,1138.74L1878.82,1126.92L1889,1120.59L1910.77,1104.13L1924.47,1100.75L1934.3,1095.69L1948.34,1091.47L1960.58,1090.84L1986.52,1090.18L2012.62,1092.7L2022.44,1094.42L2036.49,1098.23L2059.66,1112.17L2081.78,1126.11L2088.46,1136.67L2096.89,1146.38L2102.86,1159.06L2113.39,1183.13L2117.25,1198.76L2119.01,1213.13L2122.17,1226.64L2121.47,1241.85L2119.36,1255.37L2115.5,1270.15L2108.12,1282.4L2103.56,1295.08L2097.59,1303.94L2081.43,1323.38L2070.2,1331.83L2061.07,1341.96L2050.53,1347.88L2038.24,1353.37L2021.74,1358.02L2010.89,1358.68C2003.18,1359.36 1996.11,1361.53 1996.11,1361.53C1996.11,1361.53 1987.74,1363.05 1973.04,1362.01C1966.49,1361.54 1967.45,1362.93 1963.32,1361.8Z"/>
    </g>
</svg>
